Coordinates
version=1
nRows=7
nColumns=63
inDegrees=yes

Units are S.I. units (second, meters, Newtons, ...)
If the header above contains a line with 'inDegrees', this indicates whether rotational values are in degrees (yes) or radians (no).

endheader
time	pelvis_tilt	pelvis_list	pelvis_rotation	pelvis_tx	pelvis_ty	pelvis_tz	hip_flexion_r	hip_adduction_r	hip_rotation_r	knee_angle_r	knee_angle_r_beta	ankle_angle_r	subtalar_angle_r	mtp_angle_r	hip_flexion_l	hip_adduction_l	hip_rotation_l	knee_angle_l	knee_angle_l_beta	ankle_angle_l	subtalar_angle_l	mtp_angle_l	L5_S1_Flex_Ext	L5_S1_Lat_Bending	L5_S1_axial_rotation	L4_L5_Flex_Ext	L4_L5_Lat_Bending	L4_L5_axial_rotation	L3_L4_Flex_Ext	L3_L4_Lat_Bending	L3_L4_axial_rotation	L2_L3_Flex_Ext	L2_L3_Lat_Bending	L2_L3_axial_rotation	L1_L2_Flex_Ext	L1_L2_Lat_Bending	L1_L2_axial_rotation	L1_T12_Flex_Ext	L1_T12_Lat_Bending	L1_T12_axial_rotation	Abs_r3	Abs_r2	Abs_r1	Abs_t1	Abs_t2	neck_flexion	neck_bending	neck_rotation	arm_flex_r	arm_add_r	arm_rot_r	elbow_flex_r	pro_sup_r	wrist_flex_r	wrist_dev_r	arm_flex_l	arm_add_l	arm_rot_l	elbow_flex_l	pro_sup_l	wrist_flex_l	wrist_dev_l
     19.43333333	      9.69625912	    -10.38925164	     97.35687254	      0.25700113	      0.89325199	      0.77025862	      7.91615335	      9.52488055	      6.19231104	      2.91342735	      0.05084890	     31.44416288	      0.76545002	      0.00000000	      7.71494007	    -10.67924273	      4.51389441	      0.29265174	      0.00510774	     32.58493189	      8.40707097	      0.00000000	     -0.08701117	      1.28418108	      1.27691271	     -0.16158845	      1.70796084	      1.35671975	     -0.14295065	      3.12235789	      1.35671975	     -0.09944507	      3.12235789	      1.11729862	     -0.08079857	      2.61870207	      1.03749157	     -0.04971818	      1.98919650	      0.95768453	     -0.62151210	     14.52691326	      7.10180540	      0.00000000	      0.00000000	      9.13072305	     -2.70214573	    -10.05005626	     43.19636930	    -16.00853325	     21.35536096	     79.09370748	     31.91350211	    -13.92483593	     15.19190458	     75.71877517	      8.81390272	    200.40497499	      0.17325852	      2.14655276	    -68.26253390	    -23.18439333
     19.45000000	      9.19114358	    -10.88763956	     96.48072745	      0.25784318	      0.89275311	      0.77216383	      8.30062545	      9.03583806	      6.68387238	      2.94779871	      0.05144879	     31.53004784	      0.62985060	      0.00000000	      8.17020466	    -10.15119203	      4.67571504	      0.27465420	      0.00479362	     32.65354949	      7.58684167	      0.00000000	     -0.08800152	      1.23239965	      1.39686835	     -0.16342761	      1.63909153	      1.48417262	     -0.14457769	      2.99645650	      1.48417262	     -0.10057693	      2.99645650	      1.22225980	     -0.08171821	      2.51310936	      1.13495553	     -0.05028407	      1.90898705	      1.04765126	     -0.62858603	     13.94115127	      7.76896268	      0.00000000	      0.00000000	      9.23562288	     -3.08556972	     -9.80114868	     44.72538188	    -15.85016075	     23.90031426	     77.41980501	     33.50018573	    -11.84330796	     10.99023646	     76.58751495	      8.75859286	    203.05114517	      0.17091202	      2.68720652	    -68.45093172	    -23.45675622
     19.46666667	      8.63707110	    -11.35375147	     95.75804826	      0.25874828	      0.89220365	      0.77400969	      8.56085520	      8.55425609	      9.04683795	      2.69396633	      0.04701858	     31.03348083	     -2.18495520	      0.00000000	      8.62408753	     -9.59704938	      4.13581333	      0.25815742	      0.00450570	     32.82153381	      7.81292137	      0.00000000	     -0.08180718	      1.16098234	      1.56718757	     -0.15192412	      1.54410652	      1.66513679	     -0.13440102	      2.82281247	      1.66513679	     -0.09349743	      2.82281247	      1.37128912	     -0.07596615	      2.36747519	      1.27333990	     -0.04674463	      1.79836165	      1.17539068	     -0.58434054	     13.13326445	      8.71622711	      0.00000000	      0.00000000	      9.34263692	     -3.36804755	    -10.35381452	     45.83175676	    -15.77765061	     24.63823567	     75.33021572	     46.41250622	     -6.09522807	      8.23224528	     77.32348789	      9.04114471	    205.90969616	      0.16922587	      2.96735824	    -68.56607960	    -23.53548535
     19.48333333	      8.19309291	    -11.78328024	     95.12773713	      0.25926936	      0.89166399	      0.77609133	      8.89346396	      8.11287656	      9.78736896	      2.44279303	      0.04263478	     30.93384226	     -2.74500204	      0.00000000	      9.07203845	     -9.14918886	      4.19637231	      0.24290642	      0.00423952	     32.83297655	      7.30143659	      0.00000000	     -0.07761909	      1.10963953	      1.75203980	     -0.14414642	      1.47582057	      1.86154229	     -0.12752041	      2.69797755	      1.86154229	     -0.08871086	      2.69797755	      1.53303483	     -0.07207709	      2.26277693	      1.42353234	     -0.04435155	      1.71883163	      1.31402985	     -0.55442541	     12.55246428	      9.74431977	      0.00000000	      0.00000000	      9.52079513	     -3.97015071	    -10.67629809	     47.03908795	    -15.75371438	     23.90715689	     73.23149765	     68.79913593	      1.33410541	      4.88928421	     77.90510548	      9.43362360	    207.60978397	      0.16905688	      3.48452396	    -68.65545501	    -23.63123977
     19.50000000	      7.72252568	    -12.21321991	     94.44335043	      0.25986229	      0.89105155	      0.77811535	      9.28422560	      7.64821270	      9.92064734	      2.23652701	      0.03903476	     30.90975540	     -2.29063560	      0.00000000	      9.46862006	     -8.69748531	      4.19506332	      0.22950774	      0.00400567	     32.71334849	      6.65904517	      0.00000000	     -0.07163815	      1.04764822	      1.96518108	     -0.13303922	      1.39337213	      2.08800490	     -0.11769432	      2.54725187	      2.08800490	     -0.08187525	      2.54725187	      1.71953345	     -0.06652319	      2.13636424	      1.59670963	     -0.04093404	      1.62280709	      1.47388581	     -0.51170418	     11.85120615	     10.92974762	      0.00000000	      0.00000000	      9.73130977	     -4.33882644	    -11.22686056	     48.09077987	    -15.77601606	     23.12363431	     72.06962659	     82.66289424	      6.24746162	      1.14835640	     78.38960350	      9.93310945	    208.49009520	      0.17011782	      3.99334326	    -68.69296564	    -23.66876177
     19.51666667	      7.22544482	    -12.64518597	     93.51621964	      0.26078145	      0.89023016	      0.78000739	      9.69105470	      7.21378725	     10.37589040	      2.13077885	      0.03718911	     30.65452793	     -1.80801212	      0.00000000	      9.75920408	     -8.28266228	      3.90981173	      0.21925974	      0.00382680	     32.52916804	      5.97560601	      0.00000000	     -0.06595309	      0.97774026	      2.23603747	     -0.12248148	      1.30039455	      2.37578981	     -0.10835433	      2.37727767	      2.37578981	     -0.07537778	      2.37727767	      1.95653278	     -0.06124404	      1.99380794	      1.81678044	     -0.03768559	      1.51451967	      1.67702810	     -0.47109630	     11.06039339	     12.43616958	      0.00000000	      0.00000000	     10.01786708	     -4.71419708	    -12.10454570	     48.78297268	    -15.81068276	     22.76469060	     71.48227083	     84.42917596	      7.86740916	     -0.57544447	     78.77139146	     10.52500733	    208.31959161	      0.17142374	      4.31198759	    -68.67037492	    -23.68476436
     19.53333333	      6.74282088	    -13.01759423	     93.11525372	      0.26104447	      0.88914919	      0.78170195	     10.02562357	      6.71961836	     10.19095003	      2.11247575	      0.03686966	     30.21364998	     -1.14688205	      0.00000000	     10.05256114	     -7.81275873	      4.36287837	      0.21216182	      0.00370292	     32.15354475	      4.92473713	      0.00000000	     -0.05830125	      0.90933362	      2.40730272	     -0.10827124	      1.20941371	      2.55775914	     -0.09578312	      2.21095376	      2.55775914	     -0.06663249	      2.21095376	      2.10638988	     -0.05413854	      1.85431311	      1.95593346	     -0.03331333	      1.40855777	      1.80547704	     -0.41643997	     10.28656376	     13.38869554	      0.00000000	      0.00000000	     10.47728751	     -4.86772819	    -12.66930951	     49.11779846	    -15.41135644	     21.33285427	     70.94722040	     84.47457873	      8.88614872	     -1.34797732	     79.03965935	     11.09025840	    207.29230533	      0.17235680	      4.32240557	    -68.61306169	    -23.69321188
